<mxfile host="app.diagrams.net" modified="2024-02-22T15:18:19.485Z" agent="Mozilla/5.0 (Windows NT 10.0; Win64; x64) AppleWebKit/537.36 (KHTML, like Gecko) Chrome/121.0.0.0 Safari/537.36 Edg/121.0.0.0" etag="txWUFuQ-H8eMJG1eVKz4" version="23.1.5" type="device" pages="3">
  <diagram name="Page-1" id="W_B_G76pps4Zbc3CH-DW">
    <mxGraphModel dx="628" dy="526" grid="1" gridSize="10" guides="1" tooltips="1" connect="1" arrows="1" fold="1" page="1" pageScale="1" pageWidth="850" pageHeight="1100" math="0" shadow="0">
      <root>
        <mxCell id="0" />
        <mxCell id="1" parent="0" />
        <mxCell id="RH-4TFpWR5kqe6f-4Rrm-1" style="edgeStyle=orthogonalEdgeStyle;rounded=0;orthogonalLoop=1;jettySize=auto;html=1;entryX=0;entryY=0.5;entryDx=0;entryDy=0;" parent="1" source="RH-4TFpWR5kqe6f-4Rrm-5" target="RH-4TFpWR5kqe6f-4Rrm-10" edge="1">
          <mxGeometry relative="1" as="geometry">
            <Array as="points">
              <mxPoint x="370" y="320" />
              <mxPoint x="370" y="220" />
            </Array>
          </mxGeometry>
        </mxCell>
        <mxCell id="RH-4TFpWR5kqe6f-4Rrm-2" value="2/2,R" style="edgeLabel;html=1;align=center;verticalAlign=middle;resizable=0;points=[];" parent="RH-4TFpWR5kqe6f-4Rrm-1" vertex="1" connectable="0">
          <mxGeometry x="-0.6153" y="2" relative="1" as="geometry">
            <mxPoint x="31" y="4" as="offset" />
          </mxGeometry>
        </mxCell>
        <mxCell id="RH-4TFpWR5kqe6f-4Rrm-26" value="1/1,R" style="edgeLabel;html=1;align=center;verticalAlign=middle;resizable=0;points=[];" parent="RH-4TFpWR5kqe6f-4Rrm-1" vertex="1" connectable="0">
          <mxGeometry x="0.5297" y="1" relative="1" as="geometry">
            <mxPoint x="13" y="-7" as="offset" />
          </mxGeometry>
        </mxCell>
        <mxCell id="RH-4TFpWR5kqe6f-4Rrm-24" style="edgeStyle=orthogonalEdgeStyle;rounded=0;orthogonalLoop=1;jettySize=auto;html=1;entryX=0;entryY=0.5;entryDx=0;entryDy=0;" parent="1" source="RH-4TFpWR5kqe6f-4Rrm-5" target="RH-4TFpWR5kqe6f-4Rrm-15" edge="1">
          <mxGeometry relative="1" as="geometry" />
        </mxCell>
        <mxCell id="RH-4TFpWR5kqe6f-4Rrm-25" style="edgeStyle=orthogonalEdgeStyle;rounded=0;orthogonalLoop=1;jettySize=auto;html=1;entryX=0;entryY=0.5;entryDx=0;entryDy=0;" parent="1" source="RH-4TFpWR5kqe6f-4Rrm-5" target="RH-4TFpWR5kqe6f-4Rrm-20" edge="1">
          <mxGeometry relative="1" as="geometry">
            <Array as="points">
              <mxPoint x="370" y="320" />
              <mxPoint x="370" y="420" />
            </Array>
          </mxGeometry>
        </mxCell>
        <mxCell id="RH-4TFpWR5kqe6f-4Rrm-27" value="B/B,R" style="edgeLabel;html=1;align=center;verticalAlign=middle;resizable=0;points=[];" parent="RH-4TFpWR5kqe6f-4Rrm-25" vertex="1" connectable="0">
          <mxGeometry x="0.4976" relative="1" as="geometry">
            <mxPoint x="16" y="-10" as="offset" />
          </mxGeometry>
        </mxCell>
        <mxCell id="RH-4TFpWR5kqe6f-4Rrm-5" value="q0" style="ellipse;whiteSpace=wrap;html=1;" parent="1" vertex="1">
          <mxGeometry x="290" y="290" width="60" height="60" as="geometry" />
        </mxCell>
        <mxCell id="RH-4TFpWR5kqe6f-4Rrm-31" style="edgeStyle=orthogonalEdgeStyle;rounded=0;orthogonalLoop=1;jettySize=auto;html=1;entryX=0.5;entryY=0;entryDx=0;entryDy=0;" parent="1" source="RH-4TFpWR5kqe6f-4Rrm-10" target="RH-4TFpWR5kqe6f-4Rrm-15" edge="1">
          <mxGeometry relative="1" as="geometry" />
        </mxCell>
        <mxCell id="RH-4TFpWR5kqe6f-4Rrm-32" value="2/2,R" style="edgeLabel;html=1;align=center;verticalAlign=middle;resizable=0;points=[];" parent="RH-4TFpWR5kqe6f-4Rrm-31" vertex="1" connectable="0">
          <mxGeometry x="-0.1571" y="-3" relative="1" as="geometry">
            <mxPoint x="20" as="offset" />
          </mxGeometry>
        </mxCell>
        <mxCell id="RH-4TFpWR5kqe6f-4Rrm-37" style="edgeStyle=orthogonalEdgeStyle;rounded=0;orthogonalLoop=1;jettySize=auto;html=1;exitX=0.5;exitY=0;exitDx=0;exitDy=0;entryX=0;entryY=0.5;entryDx=0;entryDy=0;" parent="1" source="RH-4TFpWR5kqe6f-4Rrm-10" target="RH-4TFpWR5kqe6f-4Rrm-43" edge="1">
          <mxGeometry relative="1" as="geometry">
            <Array as="points">
              <mxPoint x="458" y="170" />
              <mxPoint x="560" y="170" />
              <mxPoint x="560" y="220" />
            </Array>
          </mxGeometry>
        </mxCell>
        <mxCell id="RH-4TFpWR5kqe6f-4Rrm-44" value="B/B,R" style="edgeLabel;html=1;align=center;verticalAlign=middle;resizable=0;points=[];" parent="RH-4TFpWR5kqe6f-4Rrm-37" vertex="1" connectable="0">
          <mxGeometry x="-0.2187" y="1" relative="1" as="geometry">
            <mxPoint x="-35" y="-9" as="offset" />
          </mxGeometry>
        </mxCell>
        <mxCell id="RH-4TFpWR5kqe6f-4Rrm-10" value="q1" style="ellipse;whiteSpace=wrap;html=1;" parent="1" vertex="1">
          <mxGeometry x="428" y="190" width="60" height="60" as="geometry" />
        </mxCell>
        <mxCell id="RH-4TFpWR5kqe6f-4Rrm-35" style="edgeStyle=orthogonalEdgeStyle;rounded=0;orthogonalLoop=1;jettySize=auto;html=1;entryX=0;entryY=0.5;entryDx=0;entryDy=0;exitX=0.5;exitY=1;exitDx=0;exitDy=0;" parent="1" source="RH-4TFpWR5kqe6f-4Rrm-15" target="RH-4TFpWR5kqe6f-4Rrm-42" edge="1">
          <mxGeometry relative="1" as="geometry">
            <mxPoint x="458.0000000000001" y="380" as="targetPoint" />
            <Array as="points">
              <mxPoint x="458" y="370" />
              <mxPoint x="560" y="370" />
              <mxPoint x="560" y="320" />
            </Array>
          </mxGeometry>
        </mxCell>
        <mxCell id="RH-4TFpWR5kqe6f-4Rrm-45" value="B/B,R" style="edgeLabel;html=1;align=center;verticalAlign=middle;resizable=0;points=[];" parent="RH-4TFpWR5kqe6f-4Rrm-35" vertex="1" connectable="0">
          <mxGeometry x="-0.189" y="2" relative="1" as="geometry">
            <mxPoint x="-35" y="-8" as="offset" />
          </mxGeometry>
        </mxCell>
        <mxCell id="RH-4TFpWR5kqe6f-4Rrm-15" value="q2" style="ellipse;whiteSpace=wrap;html=1;" parent="1" vertex="1">
          <mxGeometry x="428" y="290" width="60" height="60" as="geometry" />
        </mxCell>
        <mxCell id="RH-4TFpWR5kqe6f-4Rrm-36" style="edgeStyle=orthogonalEdgeStyle;rounded=0;orthogonalLoop=1;jettySize=auto;html=1;" parent="1" source="RH-4TFpWR5kqe6f-4Rrm-20" target="RH-4TFpWR5kqe6f-4Rrm-23" edge="1">
          <mxGeometry relative="1" as="geometry" />
        </mxCell>
        <mxCell id="RH-4TFpWR5kqe6f-4Rrm-38" value="B/0,R" style="edgeLabel;html=1;align=center;verticalAlign=middle;resizable=0;points=[];" parent="RH-4TFpWR5kqe6f-4Rrm-36" vertex="1" connectable="0">
          <mxGeometry x="-0.6211" y="-1" relative="1" as="geometry">
            <mxPoint x="-51" y="7" as="offset" />
          </mxGeometry>
        </mxCell>
        <mxCell id="RH-4TFpWR5kqe6f-4Rrm-20" value="q3" style="ellipse;whiteSpace=wrap;html=1;" parent="1" vertex="1">
          <mxGeometry x="428" y="390" width="60" height="60" as="geometry" />
        </mxCell>
        <mxCell id="RH-4TFpWR5kqe6f-4Rrm-21" style="edgeStyle=orthogonalEdgeStyle;rounded=0;orthogonalLoop=1;jettySize=auto;html=1;entryX=0;entryY=0;entryDx=0;entryDy=0;exitX=0;exitY=1;exitDx=0;exitDy=0;" parent="1" source="RH-4TFpWR5kqe6f-4Rrm-5" target="RH-4TFpWR5kqe6f-4Rrm-5" edge="1">
          <mxGeometry relative="1" as="geometry">
            <mxPoint x="259.97" y="240" as="sourcePoint" />
            <mxPoint x="229.97" y="270" as="targetPoint" />
            <Array as="points">
              <mxPoint x="270" y="341" />
              <mxPoint x="270" y="299" />
            </Array>
          </mxGeometry>
        </mxCell>
        <mxCell id="RH-4TFpWR5kqe6f-4Rrm-22" value="0/0,R" style="edgeLabel;html=1;align=center;verticalAlign=middle;resizable=0;points=[];" parent="RH-4TFpWR5kqe6f-4Rrm-21" vertex="1" connectable="0">
          <mxGeometry x="-0.3834" relative="1" as="geometry">
            <mxPoint x="-20" y="-19" as="offset" />
          </mxGeometry>
        </mxCell>
        <mxCell id="RH-4TFpWR5kqe6f-4Rrm-23" value="q_accept" style="ellipse;shape=doubleEllipse;whiteSpace=wrap;html=1;aspect=fixed;" parent="1" vertex="1">
          <mxGeometry x="710" y="230" width="70" height="70" as="geometry" />
        </mxCell>
        <mxCell id="RH-4TFpWR5kqe6f-4Rrm-28" style="edgeStyle=orthogonalEdgeStyle;rounded=0;orthogonalLoop=1;jettySize=auto;html=1;exitX=1;exitY=0;exitDx=0;exitDy=0;entryX=1;entryY=1;entryDx=0;entryDy=0;" parent="1" source="RH-4TFpWR5kqe6f-4Rrm-10" target="RH-4TFpWR5kqe6f-4Rrm-10" edge="1">
          <mxGeometry relative="1" as="geometry">
            <mxPoint x="480" y="200" as="targetPoint" />
            <Array as="points">
              <mxPoint x="508" y="199" />
              <mxPoint x="508" y="241" />
            </Array>
          </mxGeometry>
        </mxCell>
        <mxCell id="RH-4TFpWR5kqe6f-4Rrm-30" value="0/0,R&lt;br&gt;1/1,R" style="edgeLabel;html=1;align=center;verticalAlign=middle;resizable=0;points=[];" parent="RH-4TFpWR5kqe6f-4Rrm-28" vertex="1" connectable="0">
          <mxGeometry x="-0.2514" relative="1" as="geometry">
            <mxPoint x="16" y="13" as="offset" />
          </mxGeometry>
        </mxCell>
        <mxCell id="RH-4TFpWR5kqe6f-4Rrm-33" style="edgeStyle=orthogonalEdgeStyle;rounded=0;orthogonalLoop=1;jettySize=auto;html=1;exitX=1;exitY=0;exitDx=0;exitDy=0;entryX=1;entryY=1;entryDx=0;entryDy=0;" parent="1" source="RH-4TFpWR5kqe6f-4Rrm-15" target="RH-4TFpWR5kqe6f-4Rrm-15" edge="1">
          <mxGeometry relative="1" as="geometry">
            <Array as="points">
              <mxPoint x="510" y="299" />
              <mxPoint x="510" y="341" />
            </Array>
          </mxGeometry>
        </mxCell>
        <mxCell id="RH-4TFpWR5kqe6f-4Rrm-34" value="0/0,R&lt;br&gt;1/1,R&lt;br&gt;2/2,R" style="edgeLabel;html=1;align=center;verticalAlign=middle;resizable=0;points=[];" parent="RH-4TFpWR5kqe6f-4Rrm-33" vertex="1" connectable="0">
          <mxGeometry x="0.1374" y="-1" relative="1" as="geometry">
            <mxPoint x="20" y="-8" as="offset" />
          </mxGeometry>
        </mxCell>
        <mxCell id="RH-4TFpWR5kqe6f-4Rrm-47" style="edgeStyle=orthogonalEdgeStyle;rounded=0;orthogonalLoop=1;jettySize=auto;html=1;entryX=0;entryY=0.5;entryDx=0;entryDy=0;" parent="1" source="RH-4TFpWR5kqe6f-4Rrm-42" target="RH-4TFpWR5kqe6f-4Rrm-23" edge="1">
          <mxGeometry relative="1" as="geometry" />
        </mxCell>
        <mxCell id="RH-4TFpWR5kqe6f-4Rrm-49" value="B/2,R" style="edgeLabel;html=1;align=center;verticalAlign=middle;resizable=0;points=[];" parent="RH-4TFpWR5kqe6f-4Rrm-47" vertex="1" connectable="0">
          <mxGeometry x="-0.6663" relative="1" as="geometry">
            <mxPoint x="-4" y="-8" as="offset" />
          </mxGeometry>
        </mxCell>
        <mxCell id="RH-4TFpWR5kqe6f-4Rrm-42" value="q5" style="ellipse;whiteSpace=wrap;html=1;" parent="1" vertex="1">
          <mxGeometry x="580" y="290" width="60" height="60" as="geometry" />
        </mxCell>
        <mxCell id="RH-4TFpWR5kqe6f-4Rrm-46" style="edgeStyle=orthogonalEdgeStyle;rounded=0;orthogonalLoop=1;jettySize=auto;html=1;entryX=0;entryY=0.5;entryDx=0;entryDy=0;" parent="1" source="RH-4TFpWR5kqe6f-4Rrm-43" target="RH-4TFpWR5kqe6f-4Rrm-23" edge="1">
          <mxGeometry relative="1" as="geometry" />
        </mxCell>
        <mxCell id="RH-4TFpWR5kqe6f-4Rrm-48" value="B/1,R" style="edgeLabel;html=1;align=center;verticalAlign=middle;resizable=0;points=[];" parent="RH-4TFpWR5kqe6f-4Rrm-46" vertex="1" connectable="0">
          <mxGeometry x="-0.6497" y="-2" relative="1" as="geometry">
            <mxPoint x="-2" y="-11" as="offset" />
          </mxGeometry>
        </mxCell>
        <mxCell id="RH-4TFpWR5kqe6f-4Rrm-43" value="q4" style="ellipse;whiteSpace=wrap;html=1;" parent="1" vertex="1">
          <mxGeometry x="580" y="190" width="60" height="60" as="geometry" />
        </mxCell>
        <mxCell id="PWxYdKqS6OxdpP0Cneav-2" style="edgeStyle=orthogonalEdgeStyle;rounded=0;orthogonalLoop=1;jettySize=auto;html=1;exitX=0.5;exitY=1;exitDx=0;exitDy=0;entryX=0.5;entryY=0;entryDx=0;entryDy=0;" parent="1" source="PWxYdKqS6OxdpP0Cneav-1" target="RH-4TFpWR5kqe6f-4Rrm-5" edge="1">
          <mxGeometry relative="1" as="geometry" />
        </mxCell>
        <mxCell id="PWxYdKqS6OxdpP0Cneav-1" value="&lt;b&gt;Start&lt;/b&gt;" style="text;html=1;strokeColor=none;fillColor=none;align=center;verticalAlign=middle;whiteSpace=wrap;rounded=0;" parent="1" vertex="1">
          <mxGeometry x="290" y="240" width="60" height="30" as="geometry" />
        </mxCell>
      </root>
    </mxGraphModel>
  </diagram>
  <diagram id="qE-eygpDUrk1k1QkThjg" name="Page-2">
    <mxGraphModel dx="1042" dy="535" grid="1" gridSize="10" guides="1" tooltips="1" connect="1" arrows="1" fold="1" page="1" pageScale="1" pageWidth="1600" pageHeight="900" math="0" shadow="0">
      <root>
        <mxCell id="0" />
        <mxCell id="1" parent="0" />
        <mxCell id="PzlVTYHILPYjrZrgsTKv-1" style="edgeStyle=orthogonalEdgeStyle;rounded=0;orthogonalLoop=1;jettySize=auto;html=1;exitX=1;exitY=0.5;exitDx=0;exitDy=0;" parent="1" source="PzlVTYHILPYjrZrgsTKv-7" edge="1">
          <mxGeometry relative="1" as="geometry">
            <Array as="points">
              <mxPoint x="380" y="271" />
              <mxPoint x="380" y="211" />
            </Array>
            <mxPoint x="400" y="211" as="targetPoint" />
          </mxGeometry>
        </mxCell>
        <mxCell id="PzlVTYHILPYjrZrgsTKv-3" value="1/0,R" style="edgeLabel;html=1;align=center;verticalAlign=middle;resizable=0;points=[];" parent="PzlVTYHILPYjrZrgsTKv-1" vertex="1" connectable="0">
          <mxGeometry x="0.5297" y="1" relative="1" as="geometry">
            <mxPoint x="-19" y="24" as="offset" />
          </mxGeometry>
        </mxCell>
        <mxCell id="PzlVTYHILPYjrZrgsTKv-4" style="edgeStyle=orthogonalEdgeStyle;rounded=0;orthogonalLoop=1;jettySize=auto;html=1;entryX=0;entryY=0.5;entryDx=0;entryDy=0;" parent="1" source="PzlVTYHILPYjrZrgsTKv-7" target="PzlVTYHILPYjrZrgsTKv-21" edge="1">
          <mxGeometry relative="1" as="geometry">
            <Array as="points">
              <mxPoint x="430" y="271" />
              <mxPoint x="430" y="265" />
            </Array>
          </mxGeometry>
        </mxCell>
        <mxCell id="PzlVTYHILPYjrZrgsTKv-35" value="B/B,R" style="edgeLabel;html=1;align=center;verticalAlign=middle;resizable=0;points=[];" parent="PzlVTYHILPYjrZrgsTKv-4" vertex="1" connectable="0">
          <mxGeometry x="-0.6448" y="2" relative="1" as="geometry">
            <mxPoint x="-3" y="11" as="offset" />
          </mxGeometry>
        </mxCell>
        <mxCell id="PzlVTYHILPYjrZrgsTKv-7" value="q0" style="ellipse;whiteSpace=wrap;html=1;" parent="1" vertex="1">
          <mxGeometry x="290" y="241" width="60" height="60" as="geometry" />
        </mxCell>
        <mxCell id="uef_lmhtxBlcCdpVqflu-1" style="edgeStyle=orthogonalEdgeStyle;rounded=0;orthogonalLoop=1;jettySize=auto;html=1;entryX=0;entryY=0.5;entryDx=0;entryDy=0;" parent="1" source="PzlVTYHILPYjrZrgsTKv-12" target="PzlVTYHILPYjrZrgsTKv-15" edge="1">
          <mxGeometry relative="1" as="geometry" />
        </mxCell>
        <mxCell id="uef_lmhtxBlcCdpVqflu-2" value="0/0,R" style="edgeLabel;html=1;align=center;verticalAlign=middle;resizable=0;points=[];" parent="uef_lmhtxBlcCdpVqflu-1" vertex="1" connectable="0">
          <mxGeometry x="-0.2778" y="1" relative="1" as="geometry">
            <mxPoint x="-9" y="23" as="offset" />
          </mxGeometry>
        </mxCell>
        <mxCell id="uef_lmhtxBlcCdpVqflu-4" style="edgeStyle=orthogonalEdgeStyle;rounded=0;orthogonalLoop=1;jettySize=auto;html=1;exitX=0;exitY=0;exitDx=0;exitDy=0;entryX=1;entryY=0;entryDx=0;entryDy=0;" parent="1" source="PzlVTYHILPYjrZrgsTKv-12" target="PzlVTYHILPYjrZrgsTKv-12" edge="1">
          <mxGeometry relative="1" as="geometry">
            <mxPoint x="430" y="160" as="targetPoint" />
            <Array as="points">
              <mxPoint x="410" y="190" />
              <mxPoint x="410" y="160" />
              <mxPoint x="451" y="160" />
            </Array>
          </mxGeometry>
        </mxCell>
        <mxCell id="uef_lmhtxBlcCdpVqflu-5" value="1/0,R" style="edgeLabel;html=1;align=center;verticalAlign=middle;resizable=0;points=[];" parent="uef_lmhtxBlcCdpVqflu-4" vertex="1" connectable="0">
          <mxGeometry x="-0.0561" y="-1" relative="1" as="geometry">
            <mxPoint x="3" y="-10" as="offset" />
          </mxGeometry>
        </mxCell>
        <mxCell id="uef_lmhtxBlcCdpVqflu-6" style="edgeStyle=orthogonalEdgeStyle;rounded=0;orthogonalLoop=1;jettySize=auto;html=1;exitX=0.5;exitY=1;exitDx=0;exitDy=0;entryX=0;entryY=0.5;entryDx=0;entryDy=0;" parent="1" source="PzlVTYHILPYjrZrgsTKv-12" target="PzlVTYHILPYjrZrgsTKv-21" edge="1">
          <mxGeometry relative="1" as="geometry" />
        </mxCell>
        <mxCell id="uef_lmhtxBlcCdpVqflu-7" value="B/B,R" style="edgeLabel;html=1;align=center;verticalAlign=middle;resizable=0;points=[];" parent="uef_lmhtxBlcCdpVqflu-6" vertex="1" connectable="0">
          <mxGeometry x="-0.8829" y="1" relative="1" as="geometry">
            <mxPoint x="19" y="-5" as="offset" />
          </mxGeometry>
        </mxCell>
        <mxCell id="PzlVTYHILPYjrZrgsTKv-12" value="q1" style="ellipse;whiteSpace=wrap;html=1;" parent="1" vertex="1">
          <mxGeometry x="400" y="181" width="60" height="60" as="geometry" />
        </mxCell>
        <mxCell id="uef_lmhtxBlcCdpVqflu-8" style="edgeStyle=orthogonalEdgeStyle;rounded=0;orthogonalLoop=1;jettySize=auto;html=1;entryX=0;entryY=0.5;entryDx=0;entryDy=0;exitX=0.5;exitY=0;exitDx=0;exitDy=0;" parent="1" source="PzlVTYHILPYjrZrgsTKv-15" target="PzlVTYHILPYjrZrgsTKv-12" edge="1">
          <mxGeometry relative="1" as="geometry">
            <Array as="points">
              <mxPoint x="550" y="110" />
              <mxPoint x="380" y="110" />
              <mxPoint x="380" y="211" />
            </Array>
          </mxGeometry>
        </mxCell>
        <mxCell id="uef_lmhtxBlcCdpVqflu-9" value="1/5,R" style="edgeLabel;html=1;align=center;verticalAlign=middle;resizable=0;points=[];" parent="uef_lmhtxBlcCdpVqflu-8" vertex="1" connectable="0">
          <mxGeometry x="-0.2485" y="-1" relative="1" as="geometry">
            <mxPoint x="13" y="-9" as="offset" />
          </mxGeometry>
        </mxCell>
        <mxCell id="uef_lmhtxBlcCdpVqflu-10" style="edgeStyle=orthogonalEdgeStyle;rounded=0;orthogonalLoop=1;jettySize=auto;html=1;entryX=0;entryY=0.5;entryDx=0;entryDy=0;" parent="1" source="PzlVTYHILPYjrZrgsTKv-15" target="PzlVTYHILPYjrZrgsTKv-21" edge="1">
          <mxGeometry relative="1" as="geometry" />
        </mxCell>
        <mxCell id="uef_lmhtxBlcCdpVqflu-11" value="B/B,R" style="edgeLabel;html=1;align=center;verticalAlign=middle;resizable=0;points=[];" parent="uef_lmhtxBlcCdpVqflu-10" vertex="1" connectable="0">
          <mxGeometry x="-0.5045" relative="1" as="geometry">
            <mxPoint x="-11" y="-24" as="offset" />
          </mxGeometry>
        </mxCell>
        <mxCell id="uef_lmhtxBlcCdpVqflu-12" style="edgeStyle=orthogonalEdgeStyle;rounded=0;orthogonalLoop=1;jettySize=auto;html=1;entryX=0;entryY=0.5;entryDx=0;entryDy=0;" parent="1" source="PzlVTYHILPYjrZrgsTKv-15" target="PzlVTYHILPYjrZrgsTKv-7" edge="1">
          <mxGeometry relative="1" as="geometry" />
        </mxCell>
        <mxCell id="PzlVTYHILPYjrZrgsTKv-15" value="q2" style="ellipse;whiteSpace=wrap;html=1;" parent="1" vertex="1">
          <mxGeometry x="520" y="121" width="60" height="60" as="geometry" />
        </mxCell>
        <mxCell id="PzlVTYHILPYjrZrgsTKv-19" style="edgeStyle=orthogonalEdgeStyle;rounded=0;orthogonalLoop=1;jettySize=auto;html=1;entryX=0;entryY=0;entryDx=0;entryDy=0;exitX=0;exitY=1;exitDx=0;exitDy=0;" parent="1" source="PzlVTYHILPYjrZrgsTKv-7" target="PzlVTYHILPYjrZrgsTKv-7" edge="1">
          <mxGeometry relative="1" as="geometry">
            <mxPoint x="270" y="299" as="sourcePoint" />
            <mxPoint x="229.97" y="270" as="targetPoint" />
            <Array as="points">
              <mxPoint x="270" y="292" />
              <mxPoint x="270" y="250" />
            </Array>
          </mxGeometry>
        </mxCell>
        <mxCell id="PzlVTYHILPYjrZrgsTKv-20" value="0/0,R" style="edgeLabel;html=1;align=center;verticalAlign=middle;resizable=0;points=[];" parent="PzlVTYHILPYjrZrgsTKv-19" vertex="1" connectable="0">
          <mxGeometry x="-0.3834" relative="1" as="geometry">
            <mxPoint x="-20" y="-19" as="offset" />
          </mxGeometry>
        </mxCell>
        <mxCell id="PzlVTYHILPYjrZrgsTKv-21" value="q_accept" style="ellipse;shape=doubleEllipse;whiteSpace=wrap;html=1;aspect=fixed;" parent="1" vertex="1">
          <mxGeometry x="641" y="230" width="70" height="70" as="geometry" />
        </mxCell>
        <mxCell id="PzlVTYHILPYjrZrgsTKv-32" style="edgeStyle=orthogonalEdgeStyle;rounded=0;orthogonalLoop=1;jettySize=auto;html=1;exitX=0.5;exitY=1;exitDx=0;exitDy=0;entryX=0.5;entryY=0;entryDx=0;entryDy=0;" parent="1" source="PzlVTYHILPYjrZrgsTKv-33" target="PzlVTYHILPYjrZrgsTKv-7" edge="1">
          <mxGeometry relative="1" as="geometry" />
        </mxCell>
        <mxCell id="PzlVTYHILPYjrZrgsTKv-33" value="&lt;b&gt;Start&lt;/b&gt;" style="text;html=1;strokeColor=none;fillColor=none;align=center;verticalAlign=middle;whiteSpace=wrap;rounded=0;" parent="1" vertex="1">
          <mxGeometry x="290" y="191" width="60" height="30" as="geometry" />
        </mxCell>
      </root>
    </mxGraphModel>
  </diagram>
  <diagram id="FBI4mp7hpLFN1dqRbfNf" name="Page-3">
    <mxGraphModel dx="285" dy="239" grid="1" gridSize="10" guides="1" tooltips="1" connect="1" arrows="1" fold="1" page="1" pageScale="1" pageWidth="1600" pageHeight="900" math="0" shadow="0">
      <root>
        <mxCell id="0" />
        <mxCell id="1" parent="0" />
        <mxCell id="qeLmurZBArziUKBr9-JZ-10" style="edgeStyle=orthogonalEdgeStyle;rounded=0;orthogonalLoop=1;jettySize=auto;html=1;entryX=0;entryY=0.5;entryDx=0;entryDy=0;" edge="1" parent="1" source="qeLmurZBArziUKBr9-JZ-1" target="qeLmurZBArziUKBr9-JZ-4">
          <mxGeometry relative="1" as="geometry" />
        </mxCell>
        <mxCell id="qeLmurZBArziUKBr9-JZ-30" value="0/0,R" style="edgeLabel;html=1;align=center;verticalAlign=middle;resizable=0;points=[];" vertex="1" connectable="0" parent="qeLmurZBArziUKBr9-JZ-10">
          <mxGeometry x="-0.2483" y="1" relative="1" as="geometry">
            <mxPoint x="-17" y="-4" as="offset" />
          </mxGeometry>
        </mxCell>
        <mxCell id="qeLmurZBArziUKBr9-JZ-11" style="edgeStyle=orthogonalEdgeStyle;rounded=0;orthogonalLoop=1;jettySize=auto;html=1;entryX=0;entryY=0.5;entryDx=0;entryDy=0;" edge="1" parent="1" source="qeLmurZBArziUKBr9-JZ-1" target="qeLmurZBArziUKBr9-JZ-7">
          <mxGeometry relative="1" as="geometry" />
        </mxCell>
        <mxCell id="qeLmurZBArziUKBr9-JZ-31" value="1/1,R" style="edgeLabel;html=1;align=center;verticalAlign=middle;resizable=0;points=[];" vertex="1" connectable="0" parent="qeLmurZBArziUKBr9-JZ-11">
          <mxGeometry x="-0.3606" y="-1" relative="1" as="geometry">
            <mxPoint x="-17" as="offset" />
          </mxGeometry>
        </mxCell>
        <mxCell id="qeLmurZBArziUKBr9-JZ-1" value="q0" style="ellipse;whiteSpace=wrap;html=1;" vertex="1" parent="1">
          <mxGeometry x="120" y="316" width="60" height="60" as="geometry" />
        </mxCell>
        <mxCell id="qeLmurZBArziUKBr9-JZ-3" style="edgeStyle=orthogonalEdgeStyle;rounded=0;orthogonalLoop=1;jettySize=auto;html=1;entryX=0.5;entryY=0;entryDx=0;entryDy=0;" edge="1" parent="1" source="qeLmurZBArziUKBr9-JZ-2" target="qeLmurZBArziUKBr9-JZ-1">
          <mxGeometry relative="1" as="geometry" />
        </mxCell>
        <mxCell id="qeLmurZBArziUKBr9-JZ-2" value="&lt;b&gt;Start&lt;/b&gt;" style="text;html=1;strokeColor=none;fillColor=none;align=center;verticalAlign=middle;whiteSpace=wrap;rounded=0;" vertex="1" parent="1">
          <mxGeometry x="120" y="266" width="60" height="20" as="geometry" />
        </mxCell>
        <mxCell id="qeLmurZBArziUKBr9-JZ-12" style="edgeStyle=orthogonalEdgeStyle;rounded=0;orthogonalLoop=1;jettySize=auto;html=1;exitX=1;exitY=0.5;exitDx=0;exitDy=0;entryX=0;entryY=0.5;entryDx=0;entryDy=0;" edge="1" parent="1" source="qeLmurZBArziUKBr9-JZ-4" target="qeLmurZBArziUKBr9-JZ-6">
          <mxGeometry relative="1" as="geometry">
            <mxPoint x="316.99996849399736" y="179.9565217391305" as="sourcePoint" />
            <Array as="points">
              <mxPoint x="360" y="226" />
              <mxPoint x="360" y="141" />
            </Array>
          </mxGeometry>
        </mxCell>
        <mxCell id="qeLmurZBArziUKBr9-JZ-28" value="2/2,R" style="edgeLabel;html=1;align=center;verticalAlign=middle;resizable=0;points=[];" vertex="1" connectable="0" parent="qeLmurZBArziUKBr9-JZ-12">
          <mxGeometry x="0.0533" y="1" relative="1" as="geometry">
            <mxPoint x="-19" as="offset" />
          </mxGeometry>
        </mxCell>
        <mxCell id="qeLmurZBArziUKBr9-JZ-13" style="edgeStyle=orthogonalEdgeStyle;rounded=0;orthogonalLoop=1;jettySize=auto;html=1;entryX=0;entryY=0.5;entryDx=0;entryDy=0;" edge="1" parent="1" source="qeLmurZBArziUKBr9-JZ-4" target="qeLmurZBArziUKBr9-JZ-5">
          <mxGeometry relative="1" as="geometry">
            <Array as="points">
              <mxPoint x="360" y="226" />
              <mxPoint x="360" y="276" />
            </Array>
          </mxGeometry>
        </mxCell>
        <mxCell id="qeLmurZBArziUKBr9-JZ-29" value="3/3,R" style="edgeLabel;html=1;align=center;verticalAlign=middle;resizable=0;points=[];" vertex="1" connectable="0" parent="qeLmurZBArziUKBr9-JZ-13">
          <mxGeometry x="0.0271" y="1" relative="1" as="geometry">
            <mxPoint x="-21" y="-6" as="offset" />
          </mxGeometry>
        </mxCell>
        <mxCell id="qeLmurZBArziUKBr9-JZ-4" value="q1" style="ellipse;whiteSpace=wrap;html=1;" vertex="1" parent="1">
          <mxGeometry x="257" y="196" width="60" height="60" as="geometry" />
        </mxCell>
        <mxCell id="qeLmurZBArziUKBr9-JZ-5" value="q3" style="ellipse;whiteSpace=wrap;html=1;" vertex="1" parent="1">
          <mxGeometry x="401" y="246" width="60" height="60" as="geometry" />
        </mxCell>
        <mxCell id="qeLmurZBArziUKBr9-JZ-6" value="q2" style="ellipse;whiteSpace=wrap;html=1;" vertex="1" parent="1">
          <mxGeometry x="401" y="111" width="60" height="60" as="geometry" />
        </mxCell>
        <mxCell id="qeLmurZBArziUKBr9-JZ-14" style="edgeStyle=orthogonalEdgeStyle;rounded=0;orthogonalLoop=1;jettySize=auto;html=1;" edge="1" parent="1" source="qeLmurZBArziUKBr9-JZ-7" target="qeLmurZBArziUKBr9-JZ-9">
          <mxGeometry relative="1" as="geometry" />
        </mxCell>
        <mxCell id="qeLmurZBArziUKBr9-JZ-25" value="2/2,R" style="edgeLabel;html=1;align=center;verticalAlign=middle;resizable=0;points=[];" vertex="1" connectable="0" parent="qeLmurZBArziUKBr9-JZ-14">
          <mxGeometry x="0.0513" y="1" relative="1" as="geometry">
            <mxPoint x="-18" as="offset" />
          </mxGeometry>
        </mxCell>
        <mxCell id="qeLmurZBArziUKBr9-JZ-15" style="edgeStyle=orthogonalEdgeStyle;rounded=0;orthogonalLoop=1;jettySize=auto;html=1;entryX=0;entryY=0.5;entryDx=0;entryDy=0;" edge="1" parent="1" source="qeLmurZBArziUKBr9-JZ-7" target="qeLmurZBArziUKBr9-JZ-8">
          <mxGeometry relative="1" as="geometry" />
        </mxCell>
        <mxCell id="qeLmurZBArziUKBr9-JZ-27" value="3/3,R" style="edgeLabel;html=1;align=center;verticalAlign=middle;resizable=0;points=[];" vertex="1" connectable="0" parent="qeLmurZBArziUKBr9-JZ-15">
          <mxGeometry x="-0.2457" y="-1" relative="1" as="geometry">
            <mxPoint x="-18" as="offset" />
          </mxGeometry>
        </mxCell>
        <mxCell id="qeLmurZBArziUKBr9-JZ-7" value="q4" style="ellipse;whiteSpace=wrap;html=1;" vertex="1" parent="1">
          <mxGeometry x="257" y="416" width="60" height="60" as="geometry" />
        </mxCell>
        <mxCell id="qeLmurZBArziUKBr9-JZ-8" value="q6" style="ellipse;whiteSpace=wrap;html=1;" vertex="1" parent="1">
          <mxGeometry x="401" y="500" width="60" height="60" as="geometry" />
        </mxCell>
        <mxCell id="qeLmurZBArziUKBr9-JZ-9" value="q5" style="ellipse;whiteSpace=wrap;html=1;" vertex="1" parent="1">
          <mxGeometry x="401" y="376" width="60" height="60" as="geometry" />
        </mxCell>
        <mxCell id="qeLmurZBArziUKBr9-JZ-16" style="edgeStyle=orthogonalEdgeStyle;rounded=0;orthogonalLoop=1;jettySize=auto;html=1;exitX=0;exitY=0;exitDx=0;exitDy=0;entryX=1;entryY=0;entryDx=0;entryDy=0;" edge="1" parent="1" source="qeLmurZBArziUKBr9-JZ-5" target="qeLmurZBArziUKBr9-JZ-5">
          <mxGeometry relative="1" as="geometry">
            <Array as="points">
              <mxPoint x="410" y="226" />
              <mxPoint x="452" y="226" />
            </Array>
          </mxGeometry>
        </mxCell>
        <mxCell id="qeLmurZBArziUKBr9-JZ-22" value="0/3,R&lt;br&gt;1/1,R" style="edgeLabel;html=1;align=center;verticalAlign=middle;resizable=0;points=[];" vertex="1" connectable="0" parent="qeLmurZBArziUKBr9-JZ-16">
          <mxGeometry x="0.0437" y="-1" relative="1" as="geometry">
            <mxPoint x="-2" y="-17" as="offset" />
          </mxGeometry>
        </mxCell>
        <mxCell id="qeLmurZBArziUKBr9-JZ-17" style="edgeStyle=orthogonalEdgeStyle;rounded=0;orthogonalLoop=1;jettySize=auto;html=1;exitX=0;exitY=0;exitDx=0;exitDy=0;entryX=1;entryY=0;entryDx=0;entryDy=0;" edge="1" parent="1" source="qeLmurZBArziUKBr9-JZ-6" target="qeLmurZBArziUKBr9-JZ-6">
          <mxGeometry relative="1" as="geometry">
            <Array as="points">
              <mxPoint x="410" y="91" />
              <mxPoint x="452" y="91" />
            </Array>
          </mxGeometry>
        </mxCell>
        <mxCell id="qeLmurZBArziUKBr9-JZ-21" value="0/2,R&lt;br&gt;1/1,R" style="edgeLabel;html=1;align=center;verticalAlign=middle;resizable=0;points=[];" vertex="1" connectable="0" parent="qeLmurZBArziUKBr9-JZ-17">
          <mxGeometry x="-0.0165" y="4" relative="1" as="geometry">
            <mxPoint x="1" y="-17" as="offset" />
          </mxGeometry>
        </mxCell>
        <mxCell id="qeLmurZBArziUKBr9-JZ-18" style="edgeStyle=orthogonalEdgeStyle;rounded=0;orthogonalLoop=1;jettySize=auto;html=1;exitX=0;exitY=0;exitDx=0;exitDy=0;entryX=1;entryY=0;entryDx=0;entryDy=0;" edge="1" parent="1" source="qeLmurZBArziUKBr9-JZ-9" target="qeLmurZBArziUKBr9-JZ-9">
          <mxGeometry relative="1" as="geometry">
            <Array as="points">
              <mxPoint x="410" y="356" />
              <mxPoint x="452" y="356" />
              <mxPoint x="452" y="376" />
            </Array>
          </mxGeometry>
        </mxCell>
        <mxCell id="qeLmurZBArziUKBr9-JZ-23" value="0/0,R&lt;br&gt;1/2,R" style="edgeLabel;html=1;align=center;verticalAlign=middle;resizable=0;points=[];" vertex="1" connectable="0" parent="qeLmurZBArziUKBr9-JZ-18">
          <mxGeometry x="-0.1003" relative="1" as="geometry">
            <mxPoint x="5" y="-16" as="offset" />
          </mxGeometry>
        </mxCell>
        <mxCell id="qeLmurZBArziUKBr9-JZ-19" style="edgeStyle=orthogonalEdgeStyle;rounded=0;orthogonalLoop=1;jettySize=auto;html=1;exitX=0;exitY=0;exitDx=0;exitDy=0;entryX=0.89;entryY=0.206;entryDx=0;entryDy=0;entryPerimeter=0;" edge="1" parent="1" source="qeLmurZBArziUKBr9-JZ-8" target="qeLmurZBArziUKBr9-JZ-8">
          <mxGeometry relative="1" as="geometry">
            <Array as="points">
              <mxPoint x="410" y="480" />
              <mxPoint x="454" y="480" />
              <mxPoint x="454" y="512" />
            </Array>
          </mxGeometry>
        </mxCell>
        <mxCell id="qeLmurZBArziUKBr9-JZ-24" value="0/0,R&lt;br&gt;1/3,R" style="edgeLabel;html=1;align=center;verticalAlign=middle;resizable=0;points=[];" vertex="1" connectable="0" parent="qeLmurZBArziUKBr9-JZ-19">
          <mxGeometry x="0.0204" y="2" relative="1" as="geometry">
            <mxPoint x="-4" y="-15" as="offset" />
          </mxGeometry>
        </mxCell>
      </root>
    </mxGraphModel>
  </diagram>
</mxfile>
